<mxfile host="app.diagrams.net" modified="2021-08-24T07:01:23.829Z" agent="5.0 (Windows)" etag="fUtbmSI_vad2s2oSqNx4" version="14.9.6" type="github">
  <diagram id="C5RBs43oDa-KdzZeNtuy" name="Page-1">
    <mxGraphModel dx="2012" dy="603" grid="1" gridSize="10" guides="1" tooltips="1" connect="1" arrows="1" fold="1" page="1" pageScale="1" pageWidth="827" pageHeight="1169" math="0" shadow="0">
      <root>
        <mxCell id="WIyWlLk6GJQsqaUBKTNV-0" />
        <mxCell id="WIyWlLk6GJQsqaUBKTNV-1" parent="WIyWlLk6GJQsqaUBKTNV-0" />
        <mxCell id="H3H_tEZ85ApfrO30SGfh-0" value="Pizzamaker&lt;br&gt;- types of pizzas &lt;br&gt;- choices of toppping to create pizza&lt;br&gt;&lt;br&gt;- should be able to make the base using some dough&lt;br&gt;&lt;br&gt;- finding cost of pizza&lt;br&gt;&lt;div&gt;- getting the description of pizza i.e. pizza details&lt;/div&gt;&lt;div&gt;- At o/p we should be getting the price and details of pizza&lt;br&gt;&lt;/div&gt;" style="text;html=1;strokeColor=none;fillColor=none;spacing=5;spacingTop=-20;whiteSpace=wrap;overflow=hidden;rounded=0;" vertex="1" parent="WIyWlLk6GJQsqaUBKTNV-1">
          <mxGeometry x="-280" y="20" width="310" height="150" as="geometry" />
        </mxCell>
        <mxCell id="H3H_tEZ85ApfrO30SGfh-1" value="abstract class IPizza" style="swimlane;fontStyle=1;align=center;verticalAlign=top;childLayout=stackLayout;horizontal=1;startSize=26;horizontalStack=0;resizeParent=1;resizeParentMax=0;resizeLast=0;collapsible=1;marginBottom=0;" vertex="1" parent="WIyWlLk6GJQsqaUBKTNV-1">
          <mxGeometry x="-300" y="220" width="160" height="120" as="geometry" />
        </mxCell>
        <mxCell id="H3H_tEZ85ApfrO30SGfh-2" value="+  ingredients: List&lt;IIntredient&gt;" style="text;strokeColor=none;fillColor=none;align=left;verticalAlign=top;spacingLeft=4;spacingRight=4;overflow=hidden;rotatable=0;points=[[0,0.5],[1,0.5]];portConstraint=eastwest;" vertex="1" parent="H3H_tEZ85ApfrO30SGfh-1">
          <mxGeometry y="26" width="160" height="26" as="geometry" />
        </mxCell>
        <mxCell id="H3H_tEZ85ApfrO30SGfh-3" value="" style="line;strokeWidth=1;fillColor=none;align=left;verticalAlign=middle;spacingTop=-1;spacingLeft=3;spacingRight=3;rotatable=0;labelPosition=right;points=[];portConstraint=eastwest;" vertex="1" parent="H3H_tEZ85ApfrO30SGfh-1">
          <mxGeometry y="52" width="160" height="8" as="geometry" />
        </mxCell>
        <mxCell id="H3H_tEZ85ApfrO30SGfh-4" value="+ Make()&#xa;+ GetPrice()&#xa;+ GetDesc()&#xa;&#xa;&#xa;" style="text;strokeColor=none;fillColor=none;align=left;verticalAlign=top;spacingLeft=4;spacingRight=4;overflow=hidden;rotatable=0;points=[[0,0.5],[1,0.5]];portConstraint=eastwest;" vertex="1" parent="H3H_tEZ85ApfrO30SGfh-1">
          <mxGeometry y="60" width="160" height="60" as="geometry" />
        </mxCell>
        <mxCell id="H3H_tEZ85ApfrO30SGfh-5" value="«interface»&lt;br&gt;&lt;div&gt;&lt;b&gt;IPricingStrategy&lt;/b&gt;&lt;/div&gt;&lt;div&gt;&lt;b&gt;GetPrice(IPizza) : double&lt;br&gt;&lt;/b&gt;&lt;/div&gt;" style="html=1;" vertex="1" parent="WIyWlLk6GJQsqaUBKTNV-1">
          <mxGeometry x="224" y="230" width="190" height="90" as="geometry" />
        </mxCell>
        <mxCell id="H3H_tEZ85ApfrO30SGfh-6" value="IIngredient" style="swimlane;fontStyle=1;align=center;verticalAlign=top;childLayout=stackLayout;horizontal=1;startSize=26;horizontalStack=0;resizeParent=1;resizeParentMax=0;resizeLast=0;collapsible=1;marginBottom=0;" vertex="1" parent="WIyWlLk6GJQsqaUBKTNV-1">
          <mxGeometry x="-600" y="380" width="160" height="160" as="geometry" />
        </mxCell>
        <mxCell id="H3H_tEZ85ApfrO30SGfh-7" value="+ field: type" style="text;strokeColor=none;fillColor=none;align=left;verticalAlign=top;spacingLeft=4;spacingRight=4;overflow=hidden;rotatable=0;points=[[0,0.5],[1,0.5]];portConstraint=eastwest;" vertex="1" parent="H3H_tEZ85ApfrO30SGfh-6">
          <mxGeometry y="26" width="160" height="26" as="geometry" />
        </mxCell>
        <mxCell id="H3H_tEZ85ApfrO30SGfh-8" value="" style="line;strokeWidth=1;fillColor=none;align=left;verticalAlign=middle;spacingTop=-1;spacingLeft=3;spacingRight=3;rotatable=0;labelPosition=right;points=[];portConstraint=eastwest;" vertex="1" parent="H3H_tEZ85ApfrO30SGfh-6">
          <mxGeometry y="52" width="160" height="8" as="geometry" />
        </mxCell>
        <mxCell id="H3H_tEZ85ApfrO30SGfh-9" value="+ Get()&#xa;+ Set()&#xa;+ GetPrice()&#xa;&#xa;&#xa;" style="text;strokeColor=none;fillColor=none;align=left;verticalAlign=top;spacingLeft=4;spacingRight=4;overflow=hidden;rotatable=0;points=[[0,0.5],[1,0.5]];portConstraint=eastwest;" vertex="1" parent="H3H_tEZ85ApfrO30SGfh-6">
          <mxGeometry y="60" width="160" height="100" as="geometry" />
        </mxCell>
        <mxCell id="H3H_tEZ85ApfrO30SGfh-11" value="PizzaTopping" style="swimlane;fontStyle=1;align=center;verticalAlign=top;childLayout=stackLayout;horizontal=1;startSize=26;horizontalStack=0;resizeParent=1;resizeParentMax=0;resizeLast=0;collapsible=1;marginBottom=0;" vertex="1" parent="WIyWlLk6GJQsqaUBKTNV-1">
          <mxGeometry x="-640" y="650" width="160" height="60" as="geometry" />
        </mxCell>
        <mxCell id="H3H_tEZ85ApfrO30SGfh-12" value="+ field: type" style="text;strokeColor=none;fillColor=none;align=left;verticalAlign=top;spacingLeft=4;spacingRight=4;overflow=hidden;rotatable=0;points=[[0,0.5],[1,0.5]];portConstraint=eastwest;" vertex="1" parent="H3H_tEZ85ApfrO30SGfh-11">
          <mxGeometry y="26" width="160" height="26" as="geometry" />
        </mxCell>
        <mxCell id="H3H_tEZ85ApfrO30SGfh-13" value="" style="line;strokeWidth=1;fillColor=none;align=left;verticalAlign=middle;spacingTop=-1;spacingLeft=3;spacingRight=3;rotatable=0;labelPosition=right;points=[];portConstraint=eastwest;" vertex="1" parent="H3H_tEZ85ApfrO30SGfh-11">
          <mxGeometry y="52" width="160" height="8" as="geometry" />
        </mxCell>
        <mxCell id="H3H_tEZ85ApfrO30SGfh-15" value="PizzaBase" style="swimlane;fontStyle=1;align=center;verticalAlign=top;childLayout=stackLayout;horizontal=1;startSize=26;horizontalStack=0;resizeParent=1;resizeParentMax=0;resizeLast=0;collapsible=1;marginBottom=0;" vertex="1" parent="WIyWlLk6GJQsqaUBKTNV-1">
          <mxGeometry x="-460" y="650" width="160" height="60" as="geometry" />
        </mxCell>
        <mxCell id="H3H_tEZ85ApfrO30SGfh-16" value="+ field: type" style="text;strokeColor=none;fillColor=none;align=left;verticalAlign=top;spacingLeft=4;spacingRight=4;overflow=hidden;rotatable=0;points=[[0,0.5],[1,0.5]];portConstraint=eastwest;" vertex="1" parent="H3H_tEZ85ApfrO30SGfh-15">
          <mxGeometry y="26" width="160" height="26" as="geometry" />
        </mxCell>
        <mxCell id="H3H_tEZ85ApfrO30SGfh-17" value="" style="line;strokeWidth=1;fillColor=none;align=left;verticalAlign=middle;spacingTop=-1;spacingLeft=3;spacingRight=3;rotatable=0;labelPosition=right;points=[];portConstraint=eastwest;" vertex="1" parent="H3H_tEZ85ApfrO30SGfh-15">
          <mxGeometry y="52" width="160" height="8" as="geometry" />
        </mxCell>
        <mxCell id="H3H_tEZ85ApfrO30SGfh-18" value="PizzaCheese" style="swimlane;fontStyle=1;align=center;verticalAlign=top;childLayout=stackLayout;horizontal=1;startSize=26;horizontalStack=0;resizeParent=1;resizeParentMax=0;resizeLast=0;collapsible=1;marginBottom=0;" vertex="1" parent="WIyWlLk6GJQsqaUBKTNV-1">
          <mxGeometry x="-280" y="650" width="160" height="60" as="geometry" />
        </mxCell>
        <mxCell id="H3H_tEZ85ApfrO30SGfh-19" value="+ field: type" style="text;strokeColor=none;fillColor=none;align=left;verticalAlign=top;spacingLeft=4;spacingRight=4;overflow=hidden;rotatable=0;points=[[0,0.5],[1,0.5]];portConstraint=eastwest;" vertex="1" parent="H3H_tEZ85ApfrO30SGfh-18">
          <mxGeometry y="26" width="160" height="26" as="geometry" />
        </mxCell>
        <mxCell id="H3H_tEZ85ApfrO30SGfh-20" value="" style="line;strokeWidth=1;fillColor=none;align=left;verticalAlign=middle;spacingTop=-1;spacingLeft=3;spacingRight=3;rotatable=0;labelPosition=right;points=[];portConstraint=eastwest;" vertex="1" parent="H3H_tEZ85ApfrO30SGfh-18">
          <mxGeometry y="52" width="160" height="8" as="geometry" />
        </mxCell>
        <mxCell id="H3H_tEZ85ApfrO30SGfh-21" value="Use" style="endArrow=open;endSize=12;dashed=1;html=1;entryX=0.461;entryY=1.012;entryDx=0;entryDy=0;entryPerimeter=0;" edge="1" parent="WIyWlLk6GJQsqaUBKTNV-1" target="H3H_tEZ85ApfrO30SGfh-9">
          <mxGeometry width="160" relative="1" as="geometry">
            <mxPoint x="-560" y="650" as="sourcePoint" />
            <mxPoint x="-400" y="650" as="targetPoint" />
          </mxGeometry>
        </mxCell>
        <mxCell id="H3H_tEZ85ApfrO30SGfh-23" value="Use" style="endArrow=open;endSize=12;dashed=1;html=1;entryX=0.461;entryY=1.053;entryDx=0;entryDy=0;entryPerimeter=0;" edge="1" parent="WIyWlLk6GJQsqaUBKTNV-1" target="H3H_tEZ85ApfrO30SGfh-9">
          <mxGeometry width="160" relative="1" as="geometry">
            <mxPoint x="-390" y="650" as="sourcePoint" />
            <mxPoint x="-356.24" y="541.2" as="targetPoint" />
          </mxGeometry>
        </mxCell>
        <mxCell id="H3H_tEZ85ApfrO30SGfh-24" value="Use" style="endArrow=open;endSize=12;dashed=1;html=1;" edge="1" parent="WIyWlLk6GJQsqaUBKTNV-1">
          <mxGeometry width="160" relative="1" as="geometry">
            <mxPoint x="-216.88" y="650" as="sourcePoint" />
            <mxPoint x="-520" y="541" as="targetPoint" />
          </mxGeometry>
        </mxCell>
        <mxCell id="H3H_tEZ85ApfrO30SGfh-25" value="PizzaMaker" style="swimlane;fontStyle=1;align=center;verticalAlign=top;childLayout=stackLayout;horizontal=1;startSize=26;horizontalStack=0;resizeParent=1;resizeParentMax=0;resizeLast=0;collapsible=1;marginBottom=0;" vertex="1" parent="WIyWlLk6GJQsqaUBKTNV-1">
          <mxGeometry x="-300" y="420" width="210" height="100" as="geometry" />
        </mxCell>
        <mxCell id="H3H_tEZ85ApfrO30SGfh-26" value="+ pizzas: List&lt;IPizzas&gt;&#xa;Map&lt;option number, IPizza&gt;&#xa;&#xa;&#xa;" style="text;strokeColor=none;fillColor=none;align=left;verticalAlign=top;spacingLeft=4;spacingRight=4;overflow=hidden;rotatable=0;points=[[0,0.5],[1,0.5]];portConstraint=eastwest;" vertex="1" parent="H3H_tEZ85ApfrO30SGfh-25">
          <mxGeometry y="26" width="210" height="26" as="geometry" />
        </mxCell>
        <mxCell id="H3H_tEZ85ApfrO30SGfh-27" value="" style="line;strokeWidth=1;fillColor=none;align=left;verticalAlign=middle;spacingTop=-1;spacingLeft=3;spacingRight=3;rotatable=0;labelPosition=right;points=[];portConstraint=eastwest;" vertex="1" parent="H3H_tEZ85ApfrO30SGfh-25">
          <mxGeometry y="52" width="210" height="8" as="geometry" />
        </mxCell>
        <mxCell id="H3H_tEZ85ApfrO30SGfh-28" value="+ IPizza Create(IPizza)" style="text;strokeColor=none;fillColor=none;align=left;verticalAlign=top;spacingLeft=4;spacingRight=4;overflow=hidden;rotatable=0;points=[[0,0.5],[1,0.5]];portConstraint=eastwest;" vertex="1" parent="H3H_tEZ85ApfrO30SGfh-25">
          <mxGeometry y="60" width="210" height="40" as="geometry" />
        </mxCell>
        <mxCell id="H3H_tEZ85ApfrO30SGfh-29" value="FarmHousePizza" style="swimlane;fontStyle=1;align=center;verticalAlign=top;childLayout=stackLayout;horizontal=1;startSize=26;horizontalStack=0;resizeParent=1;resizeParentMax=0;resizeLast=0;collapsible=1;marginBottom=0;" vertex="1" parent="WIyWlLk6GJQsqaUBKTNV-1">
          <mxGeometry x="30" y="160" width="160" height="86" as="geometry" />
        </mxCell>
        <mxCell id="H3H_tEZ85ApfrO30SGfh-30" value="+ field: type" style="text;strokeColor=none;fillColor=none;align=left;verticalAlign=top;spacingLeft=4;spacingRight=4;overflow=hidden;rotatable=0;points=[[0,0.5],[1,0.5]];portConstraint=eastwest;" vertex="1" parent="H3H_tEZ85ApfrO30SGfh-29">
          <mxGeometry y="26" width="160" height="26" as="geometry" />
        </mxCell>
        <mxCell id="H3H_tEZ85ApfrO30SGfh-31" value="" style="line;strokeWidth=1;fillColor=none;align=left;verticalAlign=middle;spacingTop=-1;spacingLeft=3;spacingRight=3;rotatable=0;labelPosition=right;points=[];portConstraint=eastwest;" vertex="1" parent="H3H_tEZ85ApfrO30SGfh-29">
          <mxGeometry y="52" width="160" height="8" as="geometry" />
        </mxCell>
        <mxCell id="H3H_tEZ85ApfrO30SGfh-32" value="+ method(type): type" style="text;strokeColor=none;fillColor=none;align=left;verticalAlign=top;spacingLeft=4;spacingRight=4;overflow=hidden;rotatable=0;points=[[0,0.5],[1,0.5]];portConstraint=eastwest;" vertex="1" parent="H3H_tEZ85ApfrO30SGfh-29">
          <mxGeometry y="60" width="160" height="26" as="geometry" />
        </mxCell>
        <mxCell id="H3H_tEZ85ApfrO30SGfh-33" value="Extends" style="endArrow=block;endSize=16;endFill=0;html=1;entryX=1.008;entryY=0.311;entryDx=0;entryDy=0;entryPerimeter=0;exitX=0;exitY=0.5;exitDx=0;exitDy=0;" edge="1" parent="WIyWlLk6GJQsqaUBKTNV-1" source="H3H_tEZ85ApfrO30SGfh-30" target="H3H_tEZ85ApfrO30SGfh-4">
          <mxGeometry width="160" relative="1" as="geometry">
            <mxPoint x="-20" y="310" as="sourcePoint" />
            <mxPoint x="140" y="310" as="targetPoint" />
          </mxGeometry>
        </mxCell>
        <mxCell id="H3H_tEZ85ApfrO30SGfh-34" value="PIzzaBuilder" style="swimlane;fontStyle=1;align=center;verticalAlign=top;childLayout=stackLayout;horizontal=1;startSize=26;horizontalStack=0;resizeParent=1;resizeParentMax=0;resizeLast=0;collapsible=1;marginBottom=0;" vertex="1" parent="WIyWlLk6GJQsqaUBKTNV-1">
          <mxGeometry x="10" y="420" width="160" height="160" as="geometry" />
        </mxCell>
        <mxCell id="H3H_tEZ85ApfrO30SGfh-35" value="+ field: type" style="text;strokeColor=none;fillColor=none;align=left;verticalAlign=top;spacingLeft=4;spacingRight=4;overflow=hidden;rotatable=0;points=[[0,0.5],[1,0.5]];portConstraint=eastwest;" vertex="1" parent="H3H_tEZ85ApfrO30SGfh-34">
          <mxGeometry y="26" width="160" height="26" as="geometry" />
        </mxCell>
        <mxCell id="H3H_tEZ85ApfrO30SGfh-36" value="" style="line;strokeWidth=1;fillColor=none;align=left;verticalAlign=middle;spacingTop=-1;spacingLeft=3;spacingRight=3;rotatable=0;labelPosition=right;points=[];portConstraint=eastwest;" vertex="1" parent="H3H_tEZ85ApfrO30SGfh-34">
          <mxGeometry y="52" width="160" height="8" as="geometry" />
        </mxCell>
        <mxCell id="H3H_tEZ85ApfrO30SGfh-37" value="AddBase()&#xa;AddIngredient(IIngredient)&#xa;&#xa;IPizza Build()&#xa;&#xa;" style="text;strokeColor=none;fillColor=none;align=left;verticalAlign=top;spacingLeft=4;spacingRight=4;overflow=hidden;rotatable=0;points=[[0,0.5],[1,0.5]];portConstraint=eastwest;" vertex="1" parent="H3H_tEZ85ApfrO30SGfh-34">
          <mxGeometry y="60" width="160" height="100" as="geometry" />
        </mxCell>
        <mxCell id="H3H_tEZ85ApfrO30SGfh-40" value="C3 : Base" style="html=1;" vertex="1" parent="WIyWlLk6GJQsqaUBKTNV-1">
          <mxGeometry x="-450" y="790" width="110" height="60" as="geometry" />
        </mxCell>
        <mxCell id="H3H_tEZ85ApfrO30SGfh-41" value="C2 : Base" style="html=1;" vertex="1" parent="WIyWlLk6GJQsqaUBKTNV-1">
          <mxGeometry x="-450" y="870" width="110" height="60" as="geometry" />
        </mxCell>
        <mxCell id="H3H_tEZ85ApfrO30SGfh-42" value="C1 : Base" style="html=1;" vertex="1" parent="WIyWlLk6GJQsqaUBKTNV-1">
          <mxGeometry x="-450" y="950" width="110" height="60" as="geometry" />
        </mxCell>
        <mxCell id="H3H_tEZ85ApfrO30SGfh-43" value="Base" style="html=1;" vertex="1" parent="WIyWlLk6GJQsqaUBKTNV-1">
          <mxGeometry x="-450" y="1040" width="110" height="60" as="geometry" />
        </mxCell>
        <mxCell id="H3H_tEZ85ApfrO30SGfh-44" value="virtual ID()" style="text;html=1;align=center;verticalAlign=middle;resizable=0;points=[];autosize=1;strokeColor=none;" vertex="1" parent="WIyWlLk6GJQsqaUBKTNV-1">
          <mxGeometry x="-425" y="1110" width="70" height="20" as="geometry" />
        </mxCell>
        <mxCell id="H3H_tEZ85ApfrO30SGfh-45" value="Base* get(String ID)" style="html=1;" vertex="1" parent="WIyWlLk6GJQsqaUBKTNV-1">
          <mxGeometry x="114" y="1030" width="166" height="60" as="geometry" />
        </mxCell>
        <mxCell id="H3H_tEZ85ApfrO30SGfh-46" value="" style="endArrow=none;html=1;" edge="1" parent="WIyWlLk6GJQsqaUBKTNV-1">
          <mxGeometry width="50" height="50" relative="1" as="geometry">
            <mxPoint x="-500" y="1030" as="sourcePoint" />
            <mxPoint x="-140" y="1030" as="targetPoint" />
          </mxGeometry>
        </mxCell>
        <mxCell id="H3H_tEZ85ApfrO30SGfh-47" value="" style="endArrow=none;html=1;" edge="1" parent="WIyWlLk6GJQsqaUBKTNV-1">
          <mxGeometry width="50" height="50" relative="1" as="geometry">
            <mxPoint x="-510" y="940" as="sourcePoint" />
            <mxPoint x="-149.99999999999977" y="940" as="targetPoint" />
          </mxGeometry>
        </mxCell>
        <mxCell id="H3H_tEZ85ApfrO30SGfh-48" value="" style="endArrow=none;html=1;" edge="1" parent="WIyWlLk6GJQsqaUBKTNV-1">
          <mxGeometry width="50" height="50" relative="1" as="geometry">
            <mxPoint x="-540" y="860" as="sourcePoint" />
            <mxPoint x="-179.99999999999977" y="860" as="targetPoint" />
          </mxGeometry>
        </mxCell>
        <mxCell id="H3H_tEZ85ApfrO30SGfh-49" value="&lt;div&gt;Factory&lt;/div&gt;&lt;div&gt;{&lt;/div&gt;&lt;div&gt;map&amp;lt;string, Base*&amp;gt; mp;&lt;/div&gt;&lt;div&gt;&lt;br&gt;&lt;/div&gt;&lt;div&gt;Get(String Id)&lt;/div&gt;&lt;div&gt;{&lt;/div&gt;&lt;div&gt;if(mp.find(id) == mp.end())&lt;/div&gt;&lt;div&gt;{&lt;/div&gt;&lt;div&gt;&lt;br&gt;&lt;/div&gt;&lt;div&gt;}&lt;br&gt;&lt;/div&gt;&lt;div&gt;}&lt;br&gt;&lt;/div&gt;&lt;div&gt;}&lt;br&gt;&lt;/div&gt;" style="html=1;" vertex="1" parent="WIyWlLk6GJQsqaUBKTNV-1">
          <mxGeometry x="-170" y="1040" width="240" height="70" as="geometry" />
        </mxCell>
      </root>
    </mxGraphModel>
  </diagram>
</mxfile>
